<?xml version="1.0" encoding="UTF-8" standalone="no"?>
<!DOCTYPE svg PUBLIC "-//W3C//DTD SVG 1.1//EN"
 "http://www.w3.org/Graphics/SVG/1.1/DTD/svg11.dtd">
<!-- Generated by graphviz version 2.28.0 (20120613.0611)
 -->
<!-- Title: controllers_diagram Pages: 1 -->
<svg width="682pt" height="712pt"
 viewBox="0.00 0.00 682.21 712.20" xmlns="http://www.w3.org/2000/svg" xmlns:xlink="http://www.w3.org/1999/xlink">
<g id="graph1" class="graph" transform="scale(1 1) rotate(0) translate(4 708.2)">
<title>controllers_diagram</title>
<polygon fill="white" stroke="white" points="-4,5 -4,-708.2 679.207,-708.2 679.207,5 -4,5"/>
<!-- _diagram_info -->
<g id="node1" class="node"><title>_diagram_info</title>
<text text-anchor="start" x="170" y="-87" font-family="Times,serif" font-size="13.00">Controllers diagram</text>
<text text-anchor="start" x="170" y="-71.4" font-family="Times,serif" font-size="13.00">Date: Jun 13 2012 &#45; 08:15</text>
<text text-anchor="start" x="170" y="-55.8" font-family="Times,serif" font-size="13.00">Migration version: 20120611164515</text>
<text text-anchor="start" x="170" y="-40.2" font-family="Times,serif" font-size="13.00">Generated by RailRoady 1.0.7</text>
<text text-anchor="start" x="170" y="-24.6" font-family="Times,serif" font-size="13.00">http://railroady.prestonlee.com</text>
</g>
<!-- Api::BaseController -->
<g id="node2" class="node"><title>Api::BaseController</title>
<polyline fill="none" stroke="black" points="408,-0.5 513.538,-0.5 "/>
<path fill="none" stroke="black" d="M513.538,-0.5C519.538,-0.5 525.538,-6.5 525.538,-12.5"/>
<polyline fill="none" stroke="black" points="525.538,-12.5 525.538,-86.1 "/>
<path fill="none" stroke="black" d="M525.538,-86.1C525.538,-92.1 519.538,-98.1 513.538,-98.1"/>
<polyline fill="none" stroke="black" points="513.538,-98.1 408,-98.1 "/>
<path fill="none" stroke="black" d="M408,-98.1C402,-98.1 396,-92.1 396,-86.1"/>
<polyline fill="none" stroke="black" points="396,-86.1 396,-12.5 "/>
<path fill="none" stroke="black" d="M396,-12.5C396,-6.5 402,-0.5 408,-0.5"/>
<text text-anchor="middle" x="460.769" y="-80.1" font-family="Times,serif" font-size="14.00">Api::BaseController</text>
<polyline fill="none" stroke="black" points="396,-73.3 525.538,-73.3 "/>
<polyline fill="none" stroke="black" points="396,-49.3 525.538,-49.3 "/>
<polyline fill="none" stroke="black" points="396,-25.3 525.538,-25.3 "/>
<text text-anchor="start" x="404" y="-7.3" font-family="Times,serif" font-size="14.00">_layout</text>
</g>
<!-- Api::LineItemsController -->
<g id="node3" class="node"><title>Api::LineItemsController</title>
<polyline fill="none" stroke="black" points="408,-126.5 586.635,-126.5 "/>
<path fill="none" stroke="black" d="M586.635,-126.5C592.635,-126.5 598.635,-132.5 598.635,-138.5"/>
<polyline fill="none" stroke="black" points="598.635,-138.5 598.635,-280.1 "/>
<path fill="none" stroke="black" d="M598.635,-280.1C598.635,-286.1 592.635,-292.1 586.635,-292.1"/>
<polyline fill="none" stroke="black" points="586.635,-292.1 408,-292.1 "/>
<path fill="none" stroke="black" d="M408,-292.1C402,-292.1 396,-286.1 396,-280.1"/>
<polyline fill="none" stroke="black" points="396,-280.1 396,-138.5 "/>
<path fill="none" stroke="black" d="M396,-138.5C396,-132.5 402,-126.5 408,-126.5"/>
<text text-anchor="middle" x="497.317" y="-274.1" font-family="Times,serif" font-size="14.00">Api::LineItemsController</text>
<polyline fill="none" stroke="black" points="396,-267.3 598.635,-267.3 "/>
<text text-anchor="start" x="404" y="-249.3" font-family="Times,serif" font-size="14.00">_callback_before_49</text>
<text text-anchor="start" x="404" y="-232.5" font-family="Times,serif" font-size="14.00">_one_time_conditions_valid_50?</text>
<text text-anchor="start" x="404" y="-215.7" font-family="Times,serif" font-size="14.00">index</text>
<text text-anchor="start" x="404" y="-198.9" font-family="Times,serif" font-size="14.00">show</text>
<text text-anchor="start" x="404" y="-182.1" font-family="Times,serif" font-size="14.00">update</text>
<polyline fill="none" stroke="black" points="396,-175.3 598.635,-175.3 "/>
<polyline fill="none" stroke="black" points="396,-151.3 598.635,-151.3 "/>
<text text-anchor="start" x="404" y="-133.3" font-family="Times,serif" font-size="14.00">_layout</text>
</g>
<!-- Api::OrdersController -->
<g id="node4" class="node"><title>Api::OrdersController</title>
<polyline fill="none" stroke="black" points="408,-324.5 586.635,-324.5 "/>
<path fill="none" stroke="black" d="M586.635,-324.5C592.635,-324.5 598.635,-330.5 598.635,-336.5"/>
<polyline fill="none" stroke="black" points="598.635,-336.5 598.635,-478.1 "/>
<path fill="none" stroke="black" d="M598.635,-478.1C598.635,-484.1 592.635,-490.1 586.635,-490.1"/>
<polyline fill="none" stroke="black" points="586.635,-490.1 408,-490.1 "/>
<path fill="none" stroke="black" d="M408,-490.1C402,-490.1 396,-484.1 396,-478.1"/>
<polyline fill="none" stroke="black" points="396,-478.1 396,-336.5 "/>
<path fill="none" stroke="black" d="M396,-336.5C396,-330.5 402,-324.5 408,-324.5"/>
<text text-anchor="middle" x="497.317" y="-472.1" font-family="Times,serif" font-size="14.00">Api::OrdersController</text>
<polyline fill="none" stroke="black" points="396,-465.3 598.635,-465.3 "/>
<text text-anchor="start" x="404" y="-447.3" font-family="Times,serif" font-size="14.00">_callback_before_75</text>
<text text-anchor="start" x="404" y="-430.5" font-family="Times,serif" font-size="14.00">_one_time_conditions_valid_76?</text>
<text text-anchor="start" x="404" y="-413.7" font-family="Times,serif" font-size="14.00">index</text>
<text text-anchor="start" x="404" y="-396.9" font-family="Times,serif" font-size="14.00">show</text>
<text text-anchor="start" x="404" y="-380.1" font-family="Times,serif" font-size="14.00">update</text>
<polyline fill="none" stroke="black" points="396,-373.3 598.635,-373.3 "/>
<polyline fill="none" stroke="black" points="396,-349.3 598.635,-349.3 "/>
<text text-anchor="start" x="404" y="-331.3" font-family="Times,serif" font-size="14.00">_layout</text>
</g>
<!-- Api::ProductsController -->
<g id="node5" class="node"><title>Api::ProductsController</title>
<polyline fill="none" stroke="black" points="174,-144.5 352.635,-144.5 "/>
<path fill="none" stroke="black" d="M352.635,-144.5C358.635,-144.5 364.635,-150.5 364.635,-156.5"/>
<polyline fill="none" stroke="black" points="364.635,-156.5 364.635,-331.7 "/>
<path fill="none" stroke="black" d="M364.635,-331.7C364.635,-337.7 358.635,-343.7 352.635,-343.7"/>
<polyline fill="none" stroke="black" points="352.635,-343.7 174,-343.7 "/>
<path fill="none" stroke="black" d="M174,-343.7C168,-343.7 162,-337.7 162,-331.7"/>
<polyline fill="none" stroke="black" points="162,-331.7 162,-156.5 "/>
<path fill="none" stroke="black" d="M162,-156.5C162,-150.5 168,-144.5 174,-144.5"/>
<text text-anchor="middle" x="263.317" y="-325.7" font-family="Times,serif" font-size="14.00">Api::ProductsController</text>
<polyline fill="none" stroke="black" points="162,-318.9 364.635,-318.9 "/>
<text text-anchor="start" x="170" y="-300.9" font-family="Times,serif" font-size="14.00">_callback_before_77</text>
<text text-anchor="start" x="170" y="-284.1" font-family="Times,serif" font-size="14.00">_one_time_conditions_valid_78?</text>
<text text-anchor="start" x="170" y="-267.3" font-family="Times,serif" font-size="14.00">create</text>
<text text-anchor="start" x="170" y="-250.5" font-family="Times,serif" font-size="14.00">destroy</text>
<text text-anchor="start" x="170" y="-233.7" font-family="Times,serif" font-size="14.00">index</text>
<text text-anchor="start" x="170" y="-216.9" font-family="Times,serif" font-size="14.00">show</text>
<text text-anchor="start" x="170" y="-200.1" font-family="Times,serif" font-size="14.00">update</text>
<polyline fill="none" stroke="black" points="162,-193.3 364.635,-193.3 "/>
<polyline fill="none" stroke="black" points="162,-169.3 364.635,-169.3 "/>
<text text-anchor="start" x="170" y="-151.3" font-family="Times,serif" font-size="14.00">_layout</text>
</g>
<!-- Api::UsersController -->
<g id="node6" class="node"><title>Api::UsersController</title>
<polyline fill="none" stroke="black" points="552,-522.5 662.207,-522.5 "/>
<path fill="none" stroke="black" d="M662.207,-522.5C668.207,-522.5 674.207,-528.5 674.207,-534.5"/>
<polyline fill="none" stroke="black" points="674.207,-534.5 674.207,-676.1 "/>
<path fill="none" stroke="black" d="M674.207,-676.1C674.207,-682.1 668.207,-688.1 662.207,-688.1"/>
<polyline fill="none" stroke="black" points="662.207,-688.1 552,-688.1 "/>
<path fill="none" stroke="black" d="M552,-688.1C546,-688.1 540,-682.1 540,-676.1"/>
<polyline fill="none" stroke="black" points="540,-676.1 540,-534.5 "/>
<path fill="none" stroke="black" d="M540,-534.5C540,-528.5 546,-522.5 552,-522.5"/>
<text text-anchor="middle" x="607.104" y="-670.1" font-family="Times,serif" font-size="14.00">Api::UsersController</text>
<polyline fill="none" stroke="black" points="540,-663.3 674.207,-663.3 "/>
<text text-anchor="start" x="548" y="-645.3" font-family="Times,serif" font-size="14.00">create</text>
<text text-anchor="start" x="548" y="-628.5" font-family="Times,serif" font-size="14.00">destroy</text>
<text text-anchor="start" x="548" y="-611.7" font-family="Times,serif" font-size="14.00">index</text>
<text text-anchor="start" x="548" y="-594.9" font-family="Times,serif" font-size="14.00">show</text>
<text text-anchor="start" x="548" y="-578.1" font-family="Times,serif" font-size="14.00">update</text>
<polyline fill="none" stroke="black" points="540,-571.3 674.207,-571.3 "/>
<polyline fill="none" stroke="black" points="540,-547.3 674.207,-547.3 "/>
<text text-anchor="start" x="548" y="-529.3" font-family="Times,serif" font-size="14.00">_layout</text>
</g>
<!-- ApplicationController -->
<g id="node7" class="node"><title>ApplicationController</title>
<polyline fill="none" stroke="black" points="174,-378.5 352.635,-378.5 "/>
<path fill="none" stroke="black" d="M352.635,-378.5C358.635,-378.5 364.635,-384.5 364.635,-390.5"/>
<polyline fill="none" stroke="black" points="364.635,-390.5 364.635,-481.7 "/>
<path fill="none" stroke="black" d="M364.635,-481.7C364.635,-487.7 358.635,-493.7 352.635,-493.7"/>
<polyline fill="none" stroke="black" points="352.635,-493.7 174,-493.7 "/>
<path fill="none" stroke="black" d="M174,-493.7C168,-493.7 162,-487.7 162,-481.7"/>
<polyline fill="none" stroke="black" points="162,-481.7 162,-390.5 "/>
<path fill="none" stroke="black" d="M162,-390.5C162,-384.5 168,-378.5 174,-378.5"/>
<text text-anchor="middle" x="263.317" y="-475.7" font-family="Times,serif" font-size="14.00">ApplicationController</text>
<polyline fill="none" stroke="black" points="162,-468.9 364.635,-468.9 "/>
<text text-anchor="start" x="170" y="-450.9" font-family="Times,serif" font-size="14.00">_one_time_conditions_valid_40?</text>
<text text-anchor="start" x="170" y="-434.1" font-family="Times,serif" font-size="14.00">_one_time_conditions_valid_42?</text>
<polyline fill="none" stroke="black" points="162,-427.3 364.635,-427.3 "/>
<polyline fill="none" stroke="black" points="162,-403.3 364.635,-403.3 "/>
<text text-anchor="start" x="170" y="-385.3" font-family="Times,serif" font-size="14.00">_layout</text>
</g>
<!-- LogsController -->
<g id="node8" class="node"><title>LogsController</title>
<polyline fill="none" stroke="black" points="408,-522.5 485.545,-522.5 "/>
<path fill="none" stroke="black" d="M485.545,-522.5C491.545,-522.5 497.545,-528.5 497.545,-534.5"/>
<polyline fill="none" stroke="black" points="497.545,-534.5 497.545,-608.9 "/>
<path fill="none" stroke="black" d="M497.545,-608.9C497.545,-614.9 491.545,-620.9 485.545,-620.9"/>
<polyline fill="none" stroke="black" points="485.545,-620.9 408,-620.9 "/>
<path fill="none" stroke="black" d="M408,-620.9C402,-620.9 396,-614.9 396,-608.9"/>
<polyline fill="none" stroke="black" points="396,-608.9 396,-534.5 "/>
<path fill="none" stroke="black" d="M396,-534.5C396,-528.5 402,-522.5 408,-522.5"/>
<text text-anchor="middle" x="446.772" y="-602.9" font-family="Times,serif" font-size="14.00">LogsController</text>
<polyline fill="none" stroke="black" points="396,-596.1 497.545,-596.1 "/>
<text text-anchor="start" x="404" y="-578.1" font-family="Times,serif" font-size="14.00">show</text>
<polyline fill="none" stroke="black" points="396,-571.3 497.545,-571.3 "/>
<polyline fill="none" stroke="black" points="396,-547.3 497.545,-547.3 "/>
<text text-anchor="start" x="404" y="-529.3" font-family="Times,serif" font-size="14.00">_layout</text>
</g>
<!-- OrdersController -->
<g id="node9" class="node"><title>OrdersController</title>
<polyline fill="none" stroke="black" points="30,-252.5 117.642,-252.5 "/>
<path fill="none" stroke="black" d="M117.642,-252.5C123.642,-252.5 129.642,-258.5 129.642,-264.5"/>
<polyline fill="none" stroke="black" points="129.642,-264.5 129.642,-439.7 "/>
<path fill="none" stroke="black" d="M129.642,-439.7C129.642,-445.7 123.642,-451.7 117.642,-451.7"/>
<polyline fill="none" stroke="black" points="117.642,-451.7 30,-451.7 "/>
<path fill="none" stroke="black" d="M30,-451.7C24,-451.7 18,-445.7 18,-439.7"/>
<polyline fill="none" stroke="black" points="18,-439.7 18,-264.5 "/>
<path fill="none" stroke="black" d="M18,-264.5C18,-258.5 24,-252.5 30,-252.5"/>
<text text-anchor="middle" x="73.8208" y="-433.7" font-family="Times,serif" font-size="14.00">OrdersController</text>
<polyline fill="none" stroke="black" points="18,-426.9 129.642,-426.9 "/>
<text text-anchor="start" x="26" y="-408.9" font-family="Times,serif" font-size="14.00">create</text>
<text text-anchor="start" x="26" y="-392.1" font-family="Times,serif" font-size="14.00">destroy</text>
<text text-anchor="start" x="26" y="-375.3" font-family="Times,serif" font-size="14.00">edit</text>
<text text-anchor="start" x="26" y="-358.5" font-family="Times,serif" font-size="14.00">index</text>
<text text-anchor="start" x="26" y="-341.7" font-family="Times,serif" font-size="14.00">new</text>
<text text-anchor="start" x="26" y="-324.9" font-family="Times,serif" font-size="14.00">show</text>
<text text-anchor="start" x="26" y="-308.1" font-family="Times,serif" font-size="14.00">update</text>
<polyline fill="none" stroke="black" points="18,-301.3 129.642,-301.3 "/>
<polyline fill="none" stroke="black" points="18,-277.3 129.642,-277.3 "/>
<text text-anchor="start" x="26" y="-259.3" font-family="Times,serif" font-size="14.00">_layout</text>
</g>
<!-- ProductsController -->
<g id="node10" class="node"><title>ProductsController</title>
<polyline fill="none" stroke="black" points="12,-18.5 110.545,-18.5 "/>
<path fill="none" stroke="black" d="M110.545,-18.5C116.545,-18.5 122.545,-24.5 122.545,-30.5"/>
<polyline fill="none" stroke="black" points="122.545,-30.5 122.545,-205.7 "/>
<path fill="none" stroke="black" d="M122.545,-205.7C122.545,-211.7 116.545,-217.7 110.545,-217.7"/>
<polyline fill="none" stroke="black" points="110.545,-217.7 12,-217.7 "/>
<path fill="none" stroke="black" d="M12,-217.7C6,-217.7 0,-211.7 0,-205.7"/>
<polyline fill="none" stroke="black" points="0,-205.7 0,-30.5 "/>
<path fill="none" stroke="black" d="M0,-30.5C0,-24.5 6,-18.5 12,-18.5"/>
<text text-anchor="middle" x="61.2725" y="-199.7" font-family="Times,serif" font-size="14.00">ProductsController</text>
<polyline fill="none" stroke="black" points="0,-192.9 122.545,-192.9 "/>
<text text-anchor="start" x="8" y="-174.9" font-family="Times,serif" font-size="14.00">create</text>
<text text-anchor="start" x="8" y="-158.1" font-family="Times,serif" font-size="14.00">destroy</text>
<text text-anchor="start" x="8" y="-141.3" font-family="Times,serif" font-size="14.00">edit</text>
<text text-anchor="start" x="8" y="-124.5" font-family="Times,serif" font-size="14.00">index</text>
<text text-anchor="start" x="8" y="-107.7" font-family="Times,serif" font-size="14.00">new</text>
<text text-anchor="start" x="8" y="-90.9" font-family="Times,serif" font-size="14.00">show</text>
<text text-anchor="start" x="8" y="-74.1" font-family="Times,serif" font-size="14.00">update</text>
<polyline fill="none" stroke="black" points="0,-67.3 122.545,-67.3 "/>
<polyline fill="none" stroke="black" points="0,-43.3 122.545,-43.3 "/>
<text text-anchor="start" x="8" y="-25.3" font-family="Times,serif" font-size="14.00">_layout</text>
</g>
<!-- UsersController -->
<g id="node11" class="node"><title>UsersController</title>
<polyline fill="none" stroke="black" points="30,-504.5 111.428,-504.5 "/>
<path fill="none" stroke="black" d="M111.428,-504.5C117.428,-504.5 123.428,-510.5 123.428,-516.5"/>
<polyline fill="none" stroke="black" points="123.428,-516.5 123.428,-691.7 "/>
<path fill="none" stroke="black" d="M123.428,-691.7C123.428,-697.7 117.428,-703.7 111.428,-703.7"/>
<polyline fill="none" stroke="black" points="111.428,-703.7 30,-703.7 "/>
<path fill="none" stroke="black" d="M30,-703.7C24,-703.7 18,-697.7 18,-691.7"/>
<polyline fill="none" stroke="black" points="18,-691.7 18,-516.5 "/>
<path fill="none" stroke="black" d="M18,-516.5C18,-510.5 24,-504.5 30,-504.5"/>
<text text-anchor="middle" x="70.7139" y="-685.7" font-family="Times,serif" font-size="14.00">UsersController</text>
<polyline fill="none" stroke="black" points="18,-678.9 123.428,-678.9 "/>
<text text-anchor="start" x="26" y="-660.9" font-family="Times,serif" font-size="14.00">create</text>
<text text-anchor="start" x="26" y="-644.1" font-family="Times,serif" font-size="14.00">destroy</text>
<text text-anchor="start" x="26" y="-627.3" font-family="Times,serif" font-size="14.00">edit</text>
<text text-anchor="start" x="26" y="-610.5" font-family="Times,serif" font-size="14.00">index</text>
<text text-anchor="start" x="26" y="-593.7" font-family="Times,serif" font-size="14.00">new</text>
<text text-anchor="start" x="26" y="-576.9" font-family="Times,serif" font-size="14.00">show</text>
<text text-anchor="start" x="26" y="-560.1" font-family="Times,serif" font-size="14.00">update</text>
<polyline fill="none" stroke="black" points="18,-553.3 123.428,-553.3 "/>
<polyline fill="none" stroke="black" points="18,-529.3 123.428,-529.3 "/>
<text text-anchor="start" x="26" y="-511.3" font-family="Times,serif" font-size="14.00">_layout</text>
</g>
</g>
</svg>
