<?xml version="1.0" encoding="UTF-8" standalone="no"?>
<!DOCTYPE svg PUBLIC "-//W3C//DTD SVG 1.1//EN"
 "http://www.w3.org/Graphics/SVG/1.1/DTD/svg11.dtd">
<!-- Generated by graphviz version 2.28.0 (20120613.0611)
 -->
<!-- Title: models_diagram Pages: 1 -->
<svg width="725pt" height="382pt"
 viewBox="0.00 0.00 725.00 382.00" xmlns="http://www.w3.org/2000/svg" xmlns:xlink="http://www.w3.org/1999/xlink">
<g id="graph1" class="graph" transform="scale(1 1) rotate(0) translate(4 378)">
<title>models_diagram</title>
<polygon fill="white" stroke="white" points="-4,5 -4,-378 722,-378 722,5 -4,5"/>
<!-- _diagram_info -->
<g id="node1" class="node"><title>_diagram_info</title>
<text text-anchor="start" x="7.78833" y="-274" font-family="Times,serif" font-size="13.00">Models diagram</text>
<text text-anchor="start" x="7.78833" y="-258.4" font-family="Times,serif" font-size="13.00">Date: Jun 13 2012 &#45; 08:15</text>
<text text-anchor="start" x="7.78833" y="-242.8" font-family="Times,serif" font-size="13.00">Migration version: 20120611164515</text>
<text text-anchor="start" x="7.78833" y="-227.2" font-family="Times,serif" font-size="13.00">Generated by RailRoady 1.0.7</text>
<text text-anchor="start" x="7.78833" y="-211.6" font-family="Times,serif" font-size="13.00">http://railroady.prestonlee.com</text>
</g>
<!-- LineItem -->
<g id="node2" class="node"><title>LineItem</title>
<polyline fill="none" stroke="black" points="209.553,-0.8 336.447,-0.8 "/>
<path fill="none" stroke="black" d="M336.447,-0.8C342.447,-0.8 348.447,-6.8 348.447,-12.8"/>
<polyline fill="none" stroke="black" points="348.447,-12.8 348.447,-55.2 "/>
<path fill="none" stroke="black" d="M348.447,-55.2C348.447,-61.2 342.447,-67.2 336.447,-67.2"/>
<polyline fill="none" stroke="black" points="336.447,-67.2 209.553,-67.2 "/>
<path fill="none" stroke="black" d="M209.553,-67.2C203.553,-67.2 197.553,-61.2 197.553,-55.2"/>
<polyline fill="none" stroke="black" points="197.553,-55.2 197.553,-12.8 "/>
<path fill="none" stroke="black" d="M197.553,-12.8C197.553,-6.8 203.553,-0.8 209.553,-0.8"/>
<text text-anchor="middle" x="273" y="-49.2" font-family="Times,serif" font-size="14.00">LineItem</text>
<polyline fill="none" stroke="black" points="197.553,-42.4 348.447,-42.4 "/>
<text text-anchor="start" x="205.553" y="-24.4" font-family="Times,serif" font-size="14.00">amount_needed :integer</text>
<text text-anchor="start" x="205.553" y="-7.6" font-family="Times,serif" font-size="14.00">amount_given :integer</text>
</g>
<!-- Order -->
<g id="node3" class="node"><title>Order</title>
<polyline fill="none" stroke="black" points="235.978,-206.4 310.022,-206.4 "/>
<path fill="none" stroke="black" d="M310.022,-206.4C316.022,-206.4 322.022,-212.4 322.022,-218.4"/>
<polyline fill="none" stroke="black" points="322.022,-218.4 322.022,-277.6 "/>
<path fill="none" stroke="black" d="M322.022,-277.6C322.022,-283.6 316.022,-289.6 310.022,-289.6"/>
<polyline fill="none" stroke="black" points="310.022,-289.6 235.978,-289.6 "/>
<path fill="none" stroke="black" d="M235.978,-289.6C229.978,-289.6 223.978,-283.6 223.978,-277.6"/>
<polyline fill="none" stroke="black" points="223.978,-277.6 223.978,-218.4 "/>
<path fill="none" stroke="black" d="M223.978,-218.4C223.978,-212.4 229.978,-206.4 235.978,-206.4"/>
<text text-anchor="middle" x="273" y="-271.6" font-family="Times,serif" font-size="14.00">Order</text>
<polyline fill="none" stroke="black" points="223.978,-264.8 322.022,-264.8 "/>
<text text-anchor="start" x="231.978" y="-246.8" font-family="Times,serif" font-size="14.00">number :string</text>
<text text-anchor="start" x="231.978" y="-230" font-family="Times,serif" font-size="14.00">comment :text</text>
<text text-anchor="start" x="231.978" y="-213.2" font-family="Times,serif" font-size="14.00">state :string</text>
</g>
<!-- Order&#45;&gt;LineItem -->
<g id="edge2" class="edge"><title>Order&#45;&gt;LineItem</title>
<path fill="none" stroke="#43c884" d="M273,-198.062C273,-161.687 273,-112.54 273,-77.7388"/>
<ellipse fill="none" stroke="#43c884" cx="273" cy="-202.124" rx="4" ry="4"/>
<polygon fill="#43c884" stroke="#43c884" points="273,-77.429 277.5,-67.429 273,-72.429 273,-67.429 273,-67.429 273,-67.429 273,-72.429 268.5,-67.4291 273,-77.429 273,-77.429"/>
<text text-anchor="middle" x="297.107" y="-89.4" font-family="Times,serif" font-size="14.00">products</text>
</g>
<!-- Product -->
<g id="node4" class="node"><title>Product</title>
<polyline fill="none" stroke="black" points="351.605,-156 482.395,-156 "/>
<path fill="none" stroke="black" d="M482.395,-156C488.395,-156 494.395,-162 494.395,-168"/>
<polyline fill="none" stroke="black" points="494.395,-168 494.395,-328 "/>
<path fill="none" stroke="black" d="M494.395,-328C494.395,-334 488.395,-340 482.395,-340"/>
<polyline fill="none" stroke="black" points="482.395,-340 351.605,-340 "/>
<path fill="none" stroke="black" d="M351.605,-340C345.605,-340 339.605,-334 339.605,-328"/>
<polyline fill="none" stroke="black" points="339.605,-328 339.605,-168 "/>
<path fill="none" stroke="black" d="M339.605,-168C339.605,-162 345.605,-156 351.605,-156"/>
<text text-anchor="middle" x="417" y="-322" font-family="Times,serif" font-size="14.00">Product</text>
<polyline fill="none" stroke="black" points="339.605,-315.2 494.395,-315.2 "/>
<text text-anchor="start" x="347.605" y="-297.2" font-family="Times,serif" font-size="14.00">name :string</text>
<text text-anchor="start" x="347.605" y="-280.4" font-family="Times,serif" font-size="14.00">description :string</text>
<text text-anchor="start" x="347.605" y="-263.6" font-family="Times,serif" font-size="14.00">photo_url :string</text>
<text text-anchor="start" x="347.605" y="-246.8" font-family="Times,serif" font-size="14.00">stock :integer</text>
<text text-anchor="start" x="347.605" y="-230" font-family="Times,serif" font-size="14.00">price :decimal</text>
<text text-anchor="start" x="347.605" y="-213.2" font-family="Times,serif" font-size="14.00">created_at :datetime</text>
<text text-anchor="start" x="347.605" y="-196.4" font-family="Times,serif" font-size="14.00">updated_at :datetime</text>
<text text-anchor="start" x="347.605" y="-179.6" font-family="Times,serif" font-size="14.00">removed :boolean</text>
<text text-anchor="start" x="347.605" y="-162.8" font-family="Times,serif" font-size="14.00">product_number :integer</text>
</g>
<!-- User -->
<g id="node5" class="node"><title>User</title>
<polyline fill="none" stroke="black" points="524.722,-122.4 705.278,-122.4 "/>
<path fill="none" stroke="black" d="M705.278,-122.4C711.278,-122.4 717.278,-128.4 717.278,-134.4"/>
<polyline fill="none" stroke="black" points="717.278,-134.4 717.278,-361.6 "/>
<path fill="none" stroke="black" d="M717.278,-361.6C717.278,-367.6 711.278,-373.6 705.278,-373.6"/>
<polyline fill="none" stroke="black" points="705.278,-373.6 524.722,-373.6 "/>
<path fill="none" stroke="black" d="M524.722,-373.6C518.722,-373.6 512.722,-367.6 512.722,-361.6"/>
<polyline fill="none" stroke="black" points="512.722,-361.6 512.722,-134.4 "/>
<path fill="none" stroke="black" d="M512.722,-134.4C512.722,-128.4 518.722,-122.4 524.722,-122.4"/>
<text text-anchor="middle" x="615" y="-355.6" font-family="Times,serif" font-size="14.00">User</text>
<polyline fill="none" stroke="black" points="512.722,-348.8 717.278,-348.8 "/>
<text text-anchor="start" x="520.722" y="-330.8" font-family="Times,serif" font-size="14.00">name :string</text>
<text text-anchor="start" x="520.722" y="-314" font-family="Times,serif" font-size="14.00">address :string</text>
<text text-anchor="start" x="520.722" y="-297.2" font-family="Times,serif" font-size="14.00">created_at :datetime</text>
<text text-anchor="start" x="520.722" y="-280.4" font-family="Times,serif" font-size="14.00">updated_at :datetime</text>
<text text-anchor="start" x="520.722" y="-263.6" font-family="Times,serif" font-size="14.00">email :string</text>
<text text-anchor="start" x="520.722" y="-246.8" font-family="Times,serif" font-size="14.00">encrypted_password :string</text>
<text text-anchor="start" x="520.722" y="-230" font-family="Times,serif" font-size="14.00">reset_password_token :string</text>
<text text-anchor="start" x="520.722" y="-213.2" font-family="Times,serif" font-size="14.00">reset_password_sent_at :datetime</text>
<text text-anchor="start" x="520.722" y="-196.4" font-family="Times,serif" font-size="14.00">remember_created_at :datetime</text>
<text text-anchor="start" x="520.722" y="-179.6" font-family="Times,serif" font-size="14.00">current_sign_in_at :datetime</text>
<text text-anchor="start" x="520.722" y="-162.8" font-family="Times,serif" font-size="14.00">last_sign_in_at :datetime</text>
<text text-anchor="start" x="520.722" y="-146" font-family="Times,serif" font-size="14.00">current_sign_in_ip :string</text>
<text text-anchor="start" x="520.722" y="-129.2" font-family="Times,serif" font-size="14.00">last_sign_in_ip :string</text>
</g>
</g>
</svg>
