<?xml version="1.0" encoding="UTF-8" standalone="no"?>
<!DOCTYPE svg PUBLIC "-//W3C//DTD SVG 1.1//EN"
 "http://www.w3.org/Graphics/SVG/1.1/DTD/svg11.dtd">
<!-- Generated by graphviz version 2.28.0 (20120613.0611)
 -->
<!-- Title: models_diagram Pages: 1 -->
<svg width="476pt" height="184pt"
 viewBox="0.00 0.00 476.00 184.00" xmlns="http://www.w3.org/2000/svg" xmlns:xlink="http://www.w3.org/1999/xlink">
<g id="graph1" class="graph" transform="scale(1 1) rotate(0) translate(4 180)">
<title>models_diagram</title>
<polygon fill="white" stroke="white" points="-4,5 -4,-180 473,-180 473,5 -4,5"/>
<!-- _diagram_info -->
<g id="node1" class="node"><title>_diagram_info</title>
<text text-anchor="start" x="7.78833" y="-159" font-family="Times,serif" font-size="13.00">Models diagram</text>
<text text-anchor="start" x="7.78833" y="-143.4" font-family="Times,serif" font-size="13.00">Date: Jun 13 2012 &#45; 08:15</text>
<text text-anchor="start" x="7.78833" y="-127.8" font-family="Times,serif" font-size="13.00">Migration version: 20120611164515</text>
<text text-anchor="start" x="7.78833" y="-112.2" font-family="Times,serif" font-size="13.00">Generated by RailRoady 1.0.7</text>
<text text-anchor="start" x="7.78833" y="-96.6" font-family="Times,serif" font-size="13.00">http://railroady.prestonlee.com</text>
</g>
<!-- LineItem -->
<g id="node2" class="node"><title>LineItem</title>
<ellipse fill="none" stroke="black" cx="258" cy="-18" rx="46.1448" ry="18"/>
<text text-anchor="middle" x="258" y="-12.4" font-family="Times,serif" font-size="14.00">LineItem</text>
</g>
<!-- Order -->
<g id="node3" class="node"><title>Order</title>
<ellipse fill="none" stroke="black" cx="258" cy="-133" rx="33.3348" ry="18"/>
<text text-anchor="middle" x="258" y="-127.4" font-family="Times,serif" font-size="14.00">Order</text>
</g>
<!-- Order&#45;&gt;LineItem -->
<g id="edge2" class="edge"><title>Order&#45;&gt;LineItem</title>
<path fill="none" stroke="#73a5d9" d="M258,-106.812C258,-88.889 258,-64.8226 258,-46.4172"/>
<ellipse fill="none" stroke="#73a5d9" cx="258" cy="-110.838" rx="4" ry="4"/>
<polygon fill="#73a5d9" stroke="#73a5d9" points="258,-46.3238 262.5,-36.3237 258,-41.3238 258,-36.3238 258,-36.3238 258,-36.3238 258,-41.3238 253.5,-36.3238 258,-46.3238 258,-46.3238"/>
<text text-anchor="middle" x="282.107" y="-57.4" font-family="Times,serif" font-size="14.00">products</text>
</g>
<!-- Product -->
<g id="node4" class="node"><title>Product</title>
<ellipse fill="none" stroke="black" cx="351" cy="-133" rx="41.1166" ry="18"/>
<text text-anchor="middle" x="351" y="-127.4" font-family="Times,serif" font-size="14.00">Product</text>
</g>
<!-- User -->
<g id="node5" class="node"><title>User</title>
<ellipse fill="none" stroke="black" cx="439" cy="-133" rx="28.9087" ry="18"/>
<text text-anchor="middle" x="439" y="-127.4" font-family="Times,serif" font-size="14.00">User</text>
</g>
</g>
</svg>
